<svg xmlns="http://www.w3.org/2000/svg" width="1280" height="360" viewBox="0 0 1280 360" role="img" aria-labelledby="t d">
  <title id="t">namarr</title>
  <desc id="d">namarr renames Severance.S02E01.German.DL.1080p.WEB.h264-GRP.mkv to Severance (2022)/Season 02/Severance (2022) - S02E01 - Hallo, Frau Cobel.mkv</desc>
  <defs>
    <linearGradient id="bg" x1="0" y1="0" x2="1" y2="1">
      <stop offset="0" stop-color="#151820"/>
      <stop offset="1" stop-color="#0d0f13"/>
    </linearGradient>
    <radialGradient id="glow" cx="0.12" cy="0.2" r="0.6">
      <stop offset="0" stop-color="#f0a14a" stop-opacity="0.16"/>
      <stop offset="1" stop-color="#f0a14a" stop-opacity="0"/>
    </radialGradient>
    <pattern id="grid" width="32" height="32" patternUnits="userSpaceOnUse">
      <path d="M32 0H0V32" fill="none" stroke="#22262e" stroke-width="1"/>
    </pattern>
  </defs>
  <rect width="1280" height="360" rx="24" fill="url(#bg)"/>
  <rect width="1280" height="360" rx="24" fill="url(#grid)" opacity="0.5"/>
  <rect width="1280" height="360" rx="24" fill="url(#glow)"/>
  <rect x="0.5" y="0.5" width="1279" height="359" rx="23.5" fill="none" stroke="#262a33"/>

  <!-- Logo, as in the app -->
  <g transform="translate(64 64) scale(2.5)">
    <rect width="32" height="32" rx="8" fill="#f0a14a"/>
    <g fill="none" stroke="#1a1206" stroke-width="2.6" stroke-linecap="round" stroke-linejoin="round" transform="translate(4 4)">
      <path d="M4 7h10"/><path d="M4 12h16"/><path d="M4 17h7"/><path d="M17 4l3 3-3 3"/>
    </g>
  </g>
  <text x="168" y="124" fill="#e6e8ec" font-family="ui-sans-serif, -apple-system, 'Segoe UI', Helvetica, Arial, sans-serif" font-size="64" font-weight="700" letter-spacing="-1.5">namarr</text>
  <text x="66" y="186" fill="#b3b9c4" font-family="ui-sans-serif, -apple-system, 'Segoe UI', Helvetica, Arial, sans-serif" font-size="24">Self-hosted renaming for movies, series and anime: preview first, undo later.</text>

  <!-- Before → after, as in the workbench preview -->
  <g font-family="ui-monospace, SFMono-Regular, Menlo, Consolas, 'Liberation Mono', monospace" font-size="18">
    <rect x="64" y="226" width="1152" height="94" rx="14" fill="#13161c" stroke="#262a33"/>
    <text x="92" y="263" fill="#8c93a0">Severance.S02E01.German.DL.1080p.WEB.h264-GRP.mkv</text>
    <path d="M92 287h22m-7-6 7 6-7 6" fill="none" stroke="#5aa9ff" stroke-width="2" stroke-linecap="round" stroke-linejoin="round"/>
    <text x="128" y="294"><tspan fill="#f0a14a">Severance (2022)/Season 02/</tspan><tspan fill="#e6e8ec">Severance (2022) - S02E01 - Hallo, Frau Cobel.mkv</tspan></text>
  </g>
  <g font-family="ui-sans-serif, -apple-system, 'Segoe UI', Helvetica, Arial, sans-serif" font-size="14" font-weight="600">
    <rect x="1064" y="248" width="124" height="28" rx="14" fill="#f0a14a" fill-opacity="0.14"/>
    <text x="1126" y="267" fill="#f0a14a" text-anchor="middle">TMDB · 92 %</text>
  </g>
</svg>
